<?xml version="1.0" encoding="UTF-8" standalone="no"?>
<!DOCTYPE svg PUBLIC "-//W3C//DTD SVG 1.1//EN" "http://www.w3.org/Graphics/SVG/1.1/DTD/svg11.dtd">
<svg width="100%" height="100%" viewBox="0 0 1152 288" version="1.1" xmlns="http://www.w3.org/2000/svg" xmlns:xlink="http://www.w3.org/1999/xlink" xml:space="preserve" xmlns:serif="http://www.serif.com/" style="fill-rule:evenodd;clip-rule:evenodd;stroke-linejoin:round;stroke-miterlimit:2;">
    <g transform="matrix(1,0,0,1,-4596,-1161.5)">
        <g id="Logo-Accent" serif:id="Logo Accent" transform="matrix(0.920128,0,0,0.434389,3545.21,1161.93)">
            <rect x="1142" y="-1" width="1252" height="663" style="fill:rgb(255,229,229);"/>
            <g transform="matrix(1.08681,0,0,2.30208,-50.2257,-226.217)">
                <g transform="matrix(168,0,0,168,2190.43,288)">
                </g>
                <text x="1485px" y="288px" style="font-family:'Satoshi-Bold', 'Satoshi';font-weight:700;font-size:168px;fill:white;">A<tspan x="1597.06px 1656.53px 1712.81px 1812.94px 1901.64px 1994.38px " y="288px 288px 288px 288px 288px 288px ">ttoLea</tspan>p</text>
            </g>
            <g transform="matrix(1.08681,0,0,2.30208,-50.2257,-226.217)">
                <g transform="matrix(168,0,0,168,2190.43,288)">
                </g>
                <text x="1485px" y="288px" style="font-family:'Satoshi-Bold', 'Satoshi';font-weight:700;font-size:168px;">A<tspan x="1597.06px 1656.53px 1712.81px 1812.94px 1901.64px 1994.38px " y="288px 288px 288px 288px 288px 288px ">ttoLea</tspan>p</text>
            </g>
            <g transform="matrix(0.337782,0,0,0.708343,1174.79,89.0589)">
                <g transform="matrix(1.67077,0.837821,-0.839806,1.67473,-109.57,-933.876)">
                    <path d="M611.425,463.028C616.508,460.492 622.492,460.492 627.575,463.028C659.909,479.157 780.145,539.133 818.887,558.458C821.181,559.602 822.63,561.941 822.63,564.5C822.63,567.059 821.181,569.398 818.887,570.542C780.145,589.867 659.909,649.843 627.575,665.972C622.492,668.508 616.508,668.508 611.425,665.972C579.091,649.843 458.855,589.867 420.113,570.542C417.819,569.398 416.37,567.059 416.37,564.5C416.37,561.941 417.819,559.602 420.113,558.458C458.855,539.133 579.091,479.157 611.425,463.028Z" style="fill:rgb(93,18,210);"/>
                </g>
                <g transform="matrix(1.67077,0.837821,-0.839806,1.67473,-20.97,-1110.56)">
                    <path d="M611.425,463.028C616.508,460.492 622.492,460.492 627.575,463.028C659.909,479.157 780.145,539.133 818.887,558.458C821.181,559.602 822.63,561.941 822.63,564.5C822.63,567.059 821.181,569.398 818.887,570.542C780.145,589.867 659.909,649.843 627.575,665.972C622.492,668.508 616.508,668.508 611.425,665.972C579.091,649.843 458.855,589.867 420.113,570.542C417.819,569.398 416.37,567.059 416.37,564.5C416.37,561.941 417.819,559.602 420.113,558.458C458.855,539.133 579.091,479.157 611.425,463.028Z" style="fill:rgb(185,49,252);"/>
                </g>
                <g transform="matrix(1.67077,0.837821,-0.839806,1.67473,67.6295,-1287.24)">
                    <path d="M611.425,463.028C616.508,460.492 622.492,460.492 627.575,463.028C659.909,479.157 780.145,539.133 818.887,558.458C821.181,559.602 822.63,561.941 822.63,564.5C822.63,567.059 821.181,569.398 818.887,570.542C780.145,589.867 659.909,649.843 627.575,665.972C622.492,668.508 616.508,668.508 611.425,665.972C579.091,649.843 458.855,589.867 420.113,570.542C417.819,569.398 416.37,567.059 416.37,564.5C416.37,561.941 417.819,559.602 420.113,558.458C458.855,539.133 579.091,479.157 611.425,463.028Z" style="fill:rgb(255,106,194);"/>
                </g>
            </g>
        </g>
    </g>
</svg>
