<?xml version="1.0" encoding="UTF-8" standalone="no"?>
<!DOCTYPE svg PUBLIC "-//W3C//DTD SVG 1.1//EN" "http://www.w3.org/Graphics/SVG/1.1/DTD/svg11.dtd">
<svg width="100%" height="100%" viewBox="0 0 1152 288" version="1.1" xmlns="http://www.w3.org/2000/svg" xmlns:xlink="http://www.w3.org/1999/xlink" xml:space="preserve" xmlns:serif="http://www.serif.com/" style="fill-rule:evenodd;clip-rule:evenodd;stroke-linejoin:round;stroke-miterlimit:2;">
    <rect id="Logo-Accent" serif:id="Logo Accent" x="0" y="0" width="1152" height="288" style="fill:rgb(240,248,255);"/>
    <path d="M382.384,194.017l10.817,-30.984l50.05,0l10.816,30.984l24.75,-0l-48.4,-134.017l-24.016,0l-48.4,134.017l24.383,-0Zm33,-94.05c1.283,-3.667 2.383,-7.7 2.933,-10.267c0.367,2.75 1.65,6.783 2.75,10.267l15.4,43.266l-36.3,0l15.217,-43.266Z" style="fill-rule:nonzero;"/>
    <path d="M520.617,194.017l0,-71.867l17.6,0l0,-18.7l-17.6,0l0,-28.233l-22.366,-0l-0,28.233l-17.417,0l-0,18.7l17.417,0l-0,71.867l22.366,-0Z" style="fill-rule:nonzero;"/>
    <path d="M585.517,194.017l0,-71.867l17.6,0l0,-18.7l-17.6,0l0,-28.233l-22.366,-0l-0,28.233l-17.417,0l-0,18.7l17.417,0l-0,71.867l22.366,-0Z" style="fill-rule:nonzero;"/>
    <path d="M610.817,148.55c0,28.233 20.35,47.667 48.4,47.667c28.05,-0 48.4,-19.434 48.4,-47.667c0,-28.233 -20.35,-47.667 -48.4,-47.667c-28.05,0 -48.4,19.434 -48.4,47.667Zm22.367,0c-0,-16.5 10.633,-27.683 26.033,-27.683c15.4,-0 26.034,11.183 26.034,27.683c-0,16.5 -10.634,27.683 -26.034,27.683c-15.4,0 -26.033,-11.183 -26.033,-27.683Z" style="fill-rule:nonzero;"/>
    <path d="M752.167,60l-23.466,0l-0,134.017l79.566,-0l0,-21.634l-56.1,0l0,-112.383Z" style="fill-rule:nonzero;"/>
    <path d="M862.717,196.4c23.65,0 40.15,-11.917 44,-31.717l-20.716,0c-2.567,8.617 -10.634,13.384 -22.917,13.384c-14.85,-0 -23.283,-8.067 -24.933,-24.017l68.2,-0.183l-0,-6.784c-0,-28.233 -17.234,-46.383 -44.367,-46.383c-26.583,0 -45.1,19.617 -45.1,48.033c-0,28.05 18.883,47.667 45.833,47.667Zm-0.55,-77.367c13.384,0 22,8.25 22,20.717l-45.466,0c2.2,-13.567 10.266,-20.717 23.466,-20.717Z" style="fill-rule:nonzero;"/>
    <path d="M950.351,196.4c14.116,0 26.4,-6.417 30.25,-15.767l1.65,13.384l19.616,-0l0,-55c0,-25.117 -15.033,-38.317 -39.416,-38.317c-24.567,0 -40.7,12.833 -40.7,32.45l19.066,0c0,-9.533 7.334,-15.033 20.534,-15.033c11.366,-0 18.7,4.95 18.7,17.233l-0,2.017l-27.134,2.016c-21.45,1.65 -33.55,12.1 -33.55,28.784c0,17.05 11.734,28.233 30.984,28.233Zm7.333,-16.867c-10.083,0 -15.583,-4.033 -15.583,-12.283c-0,-7.333 5.316,-11.917 19.25,-13.2l18.883,-1.467l-0,4.767c-0,13.933 -8.8,22.183 -22.55,22.183Z" style="fill-rule:nonzero;"/>
    <path d="M1023.87,236l22.367,0l0,-54.083c5.683,9.166 17.417,14.483 30.983,14.483c26.95,0 42.35,-20.533 42.35,-48.767c0,-28.416 -16.866,-46.933 -42.35,-46.933c-13.75,0 -25.666,6.05 -31.166,16.5l-1.467,-13.75l-20.717,0l0,132.55Zm22.55,-87.267c0,-16.316 10.084,-27.683 25.484,-27.683c15.766,0 25.116,11.55 25.116,27.683c0,16.134 -9.35,27.5 -25.116,27.5c-15.4,0 -25.484,-11.183 -25.484,-27.5Z" style="fill-rule:nonzero;"/>
    <path id="OG-Curves" serif:id="OG Curves" d="M157.266,216.738c-0,-0 -15.298,26.493 -19.355,33.519c-0.605,1.047 -1.723,1.693 -2.932,1.693c-4.177,-0 -14.566,-0 -26.501,-0c-10.891,-0 -20.955,-5.812 -26.398,-15.244c-5.444,-9.433 -5.44,-21.053 0.011,-30.482c25.548,-44.194 64.035,-110.772 89.573,-154.949c5.447,-9.424 15.508,-15.227 26.395,-15.225c10.886,0.003 20.944,5.811 26.387,15.238c25.511,44.181 63.954,110.759 89.471,154.949c5.444,9.429 5.444,21.046 -0,30.475c-5.445,9.429 -15.506,15.238 -26.395,15.238l-26.693,-0c-1.21,-0 -2.328,-0.646 -2.933,-1.693c-4.057,-7.026 -19.354,-33.519 -19.354,-33.519l34.772,-0c1.21,-0 2.328,-0.646 2.933,-1.693c0.605,-1.048 0.605,-2.339 -0,-3.387c-12.682,-21.962 -62.729,-108.637 -75.41,-130.599c-0.605,-1.047 -1.723,-1.693 -2.933,-1.693c-1.21,0 -2.328,0.646 -2.933,1.693c-12.681,21.962 -62.729,108.637 -75.41,130.599c-0.605,1.048 -0.605,2.339 -0,3.387c0.605,1.047 1.723,1.693 2.933,1.693c11.253,-0 34.772,-0 34.772,-0Zm-0,-0c-0,-0 28.377,-49.145 37.705,-65.3c0.605,-1.048 1.723,-1.693 2.933,-1.693c1.21,-0 2.328,0.645 2.933,1.693c9.328,16.155 37.705,65.3 37.705,65.3l-81.276,-0Z" style="fill:rgb(31,117,254);"/>
</svg>
