<svg width="1664" height="448" viewBox="0 0 1664 448" fill="none" xmlns="http://www.w3.org/2000/svg">
<g clip-path="url(#clip0_2063_133)">
<rect width="1664" height="448" fill="black"/>
<mask id="mask0_2063_133" style="mask-type:alpha" maskUnits="userSpaceOnUse" x="480" y="128" width="704" height="192">
<path d="M752.483 193.25H771.179V255.75H752.421L751.548 250.125C750.011 252.292 748.059 254.042 745.691 255.375C743.364 256.708 740.643 257.375 737.527 257.375C732.874 257.375 728.512 256.5 724.44 254.75C720.41 253 716.858 250.583 713.784 247.5C710.71 244.375 708.3 240.792 706.555 236.75C704.852 232.667 704 228.292 704 223.625C704 219.167 704.81 215 706.43 211.125C708.051 207.25 710.315 203.854 713.223 200.938C716.173 197.979 719.559 195.667 723.381 194C727.245 192.333 731.378 191.5 735.782 191.5C739.355 191.5 742.595 192.25 745.504 193.75C748.453 195.208 751.071 197.042 753.356 199.25L752.483 193.25ZM737.028 239.375C739.604 239.375 741.952 238.708 744.07 237.375C746.189 236.042 747.872 234.25 749.118 232C750.364 229.75 750.988 227.25 750.988 224.5C750.988 221.75 750.364 219.25 749.118 217C747.872 214.75 746.189 212.958 744.07 211.625C741.952 210.292 739.604 209.625 737.028 209.625C734.453 209.625 732.105 210.292 729.987 211.625C727.909 212.958 726.247 214.75 725.001 217C723.796 219.25 723.194 221.75 723.194 224.5C723.194 227.25 723.817 229.75 725.063 232C726.31 234.25 727.972 236.042 730.049 237.375C732.168 238.708 734.494 239.375 737.028 239.375Z" fill="black"/>
<path d="M817.964 212H807.37V255.75H788.674V212H780.573V193.25H788.674V173.625H807.37V193.25H817.964V212Z" fill="black"/>
<path d="M863.485 212H852.891V255.75H834.196V212H826.094V193.25H834.196V173.625H852.891V193.25H863.485V212Z" fill="black"/>
<path d="M900.934 257.375C895.201 257.375 889.966 255.896 885.23 252.938C880.535 249.979 876.775 246.021 873.95 241.063C871.167 236.063 869.775 230.542 869.775 224.5C869.775 219.917 870.585 215.646 872.206 211.688C873.826 207.688 876.048 204.188 878.874 201.188C881.74 198.146 885.064 195.771 888.844 194.063C892.625 192.354 896.655 191.5 900.934 191.5C906.667 191.5 911.881 192.979 916.576 195.938C921.312 198.896 925.072 202.875 927.855 207.875C930.68 212.875 932.093 218.417 932.093 224.5C932.093 229.042 931.283 233.292 929.663 237.25C928.042 241.208 925.799 244.708 922.932 247.75C920.107 250.75 916.804 253.104 913.024 254.813C909.285 256.521 905.255 257.375 900.934 257.375ZM900.934 238.625C903.302 238.625 905.421 237.979 907.29 236.688C909.202 235.396 910.697 233.687 911.777 231.562C912.858 229.396 913.398 227.042 913.398 224.5C913.398 221.875 912.816 219.479 911.653 217.313C910.531 215.146 909.015 213.438 907.103 212.188C905.234 210.896 903.177 210.25 900.934 210.25C898.607 210.25 896.489 210.917 894.578 212.25C892.708 213.542 891.212 215.271 890.091 217.438C889.011 219.604 888.47 221.958 888.47 224.5C888.47 227.167 889.031 229.563 890.153 231.688C891.316 233.813 892.833 235.5 894.702 236.75C896.613 238 898.691 238.625 900.934 238.625Z" fill="black"/>
<path d="M940.092 255.75V162H958.787V255.75H940.092Z" fill="black"/>
<path d="M999.766 257.375C994.033 257.375 988.798 255.896 984.062 252.938C979.367 249.979 975.608 246 972.783 241C969.999 236 968.607 230.479 968.607 224.438C968.607 219.896 969.417 215.646 971.038 211.688C972.658 207.688 974.881 204.188 977.706 201.188C980.572 198.146 983.896 195.771 987.677 194.063C991.457 192.354 995.487 191.5 999.766 191.5C1004.75 191.5 1009.3 192.604 1013.41 194.813C1017.57 196.979 1021.06 199.938 1023.88 203.688C1026.75 207.396 1028.79 211.583 1029.99 216.25C1031.2 220.917 1031.32 225.729 1030.36 230.688H988.798C989.38 232.146 990.148 233.479 991.104 234.688C992.101 235.854 993.306 236.792 994.718 237.5C996.172 238.208 997.855 238.583 999.766 238.625C1001.59 238.667 1003.28 238.271 1004.81 237.438C1006.39 236.604 1007.76 235.479 1008.93 234.063L1028 238.5C1025.46 244.042 1021.68 248.583 1016.65 252.125C1011.63 255.625 1006 257.375 999.766 257.375ZM988.113 216.938H1011.48C1010.9 215.146 1010.03 213.563 1008.86 212.188C1007.7 210.813 1006.33 209.729 1004.75 208.938C1003.21 208.146 1001.55 207.75 999.766 207.75C998.021 207.75 996.359 208.146 994.781 208.938C993.244 209.729 991.893 210.813 990.73 212.188C989.608 213.563 988.736 215.146 988.113 216.938Z" fill="black"/>
<path d="M1085.62 193.25H1104.31V255.75H1085.55L1084.68 250.125C1083.14 252.292 1081.19 254.042 1078.82 255.375C1076.5 256.708 1073.78 257.375 1070.66 257.375C1066.01 257.375 1061.64 256.5 1057.57 254.75C1053.54 253 1049.99 250.583 1046.92 247.5C1043.84 244.375 1041.43 240.792 1039.69 236.75C1037.98 232.667 1037.13 228.292 1037.13 223.625C1037.13 219.167 1037.94 215 1039.56 211.125C1041.18 207.25 1043.45 203.854 1046.36 200.938C1049.31 197.979 1052.69 195.667 1056.51 194C1060.38 192.333 1064.51 191.5 1068.91 191.5C1072.49 191.5 1075.73 192.25 1078.64 193.75C1081.59 195.208 1084.2 197.042 1086.49 199.25L1085.62 193.25ZM1070.16 239.375C1072.74 239.375 1075.08 238.708 1077.2 237.375C1079.32 236.042 1081 234.25 1082.25 232C1083.5 229.75 1084.12 227.25 1084.12 224.5C1084.12 221.75 1083.5 219.25 1082.25 217C1081 214.75 1079.32 212.958 1077.2 211.625C1075.08 210.292 1072.74 209.625 1070.16 209.625C1067.59 209.625 1065.24 210.292 1063.12 211.625C1061.04 212.958 1059.38 214.75 1058.13 217C1056.93 219.25 1056.33 221.75 1056.33 224.5C1056.33 227.25 1056.95 229.75 1058.2 232C1059.44 234.25 1061.1 236.042 1063.18 237.375C1065.3 238.708 1067.63 239.375 1070.16 239.375Z" fill="black"/>
<path d="M1135.52 287H1116.82V193.25H1135.52V199.125C1137.47 196.917 1139.73 195.125 1142.31 193.75C1144.89 192.333 1147.86 191.625 1151.22 191.625C1155.79 191.625 1160.05 192.479 1164 194.188C1167.94 195.896 1171.41 198.271 1174.4 201.313C1177.44 204.313 1179.78 207.792 1181.44 211.75C1183.15 215.708 1184 219.958 1184 224.5C1184 229.042 1183.15 233.313 1181.44 237.313C1179.78 241.313 1177.44 244.833 1174.4 247.875C1171.41 250.875 1167.94 253.229 1164 254.938C1160.05 256.646 1155.79 257.5 1151.22 257.5C1147.86 257.5 1144.89 256.792 1142.31 255.375C1139.73 253.958 1137.47 252.167 1135.52 250V287ZM1150.97 209.625C1148.44 209.625 1146.11 210.313 1143.99 211.688C1141.91 213.021 1140.25 214.813 1139.01 217.063C1137.76 219.313 1137.14 221.792 1137.14 224.5C1137.14 227.25 1137.76 229.75 1139.01 232C1140.25 234.25 1141.91 236.042 1143.99 237.375C1146.11 238.708 1148.44 239.375 1150.97 239.375C1153.55 239.375 1155.89 238.708 1158.01 237.375C1160.13 236.042 1161.81 234.25 1163.06 232C1164.31 229.75 1164.93 227.25 1164.93 224.5C1164.93 221.792 1164.31 219.313 1163.06 217.063C1161.81 214.813 1160.13 213.021 1158.01 211.688C1155.89 210.313 1153.55 209.625 1150.97 209.625Z" fill="black"/>
<path d="M672 224C672 232.255 670.958 240.266 668.999 247.91C668.338 250.489 665.324 251.549 663.109 250.073L578.219 193.479C576.875 192.583 575.125 192.583 573.781 193.479L488.891 250.073C486.676 251.549 483.662 250.489 483.001 247.91C481.042 240.266 480 232.255 480 224C480 170.981 522.981 128 576 128C629.019 128 672 170.981 672 224Z" fill="black"/>
<path d="M573.781 217.479C575.125 216.583 576.875 216.583 578.219 217.479L656.283 269.522C658.033 270.688 658.588 273.016 657.473 274.799C653.964 280.415 649.891 285.642 645.332 290.401C644.026 291.765 641.929 291.953 640.358 290.905L578.219 249.479C576.875 248.583 575.125 248.583 573.781 249.479L511.642 290.905C510.071 291.953 507.974 291.765 506.668 290.401C502.109 285.642 498.036 280.415 494.527 274.799C493.412 273.016 493.967 270.688 495.717 269.522L573.781 217.479Z" fill="black"/>
<path d="M530.682 302.212C528.26 303.827 528.327 307.396 530.897 308.766C544.344 315.936 559.697 320 576 320C592.303 320 607.656 315.936 621.103 308.766C623.672 307.396 623.74 303.827 621.318 302.212L578.219 273.479C576.875 272.583 575.125 272.583 573.781 273.479L530.682 302.212Z" fill="black"/>
</mask>
<g mask="url(#mask0_2063_133)">
<rect width="1536" height="384" fill="white"/>
</g>
</g>
<defs>
<clipPath id="clip0_2063_133">
<rect width="1664" height="448" fill="white"/>
</clipPath>
</defs>
</svg>
