<?xml version="1.0" encoding="UTF-8" standalone="no"?>
<!DOCTYPE svg PUBLIC "-//W3C//DTD SVG 1.1//EN" "http://www.w3.org/Graphics/SVG/1.1/DTD/svg11.dtd">
<svg width="100%" height="100%" viewBox="0 0 1152 288" version="1.1" xmlns="http://www.w3.org/2000/svg" xmlns:xlink="http://www.w3.org/1999/xlink" xml:space="preserve" xmlns:serif="http://www.serif.com/" style="fill-rule:evenodd;clip-rule:evenodd;stroke-linejoin:round;stroke-miterlimit:2;">
    <rect id="Logo-Accent" serif:id="Logo Accent" x="0" y="0" width="1152" height="288" style="fill:rgb(255,229,229);"/>
    <path d="M412.192,190.168l9.912,-28.392l45.864,0l9.912,28.392l22.68,0l-44.352,-122.808l-22.008,0l-44.352,122.808l22.344,0Zm30.24,-86.184c1.176,-3.36 2.184,-7.056 2.688,-9.408c0.336,2.52 1.512,6.216 2.52,9.408l14.112,39.648l-33.264,0l13.944,-39.648Z" style="fill:white;fill-rule:nonzero;"/>
    <path d="M538.864,190.168l0,-65.856l16.128,0l0,-17.136l-16.128,0l0,-25.872l-20.496,0l0,25.872l-15.96,0l0,17.136l15.96,0l0,65.856l20.496,0Z" style="fill:white;fill-rule:nonzero;"/>
    <path d="M598.336,190.168l0,-65.856l16.128,0l0,-17.136l-16.128,0l0,-25.872l-20.496,0l0,25.872l-15.96,0l0,17.136l15.96,0l0,65.856l20.496,0Z" style="fill:white;fill-rule:nonzero;"/>
    <path d="M621.52,148.504c0,25.872 18.648,43.68 44.352,43.68c25.704,0 44.352,-17.808 44.352,-43.68c0,-25.872 -18.648,-43.68 -44.352,-43.68c-25.704,0 -44.352,17.808 -44.352,43.68Zm20.496,0c0,-15.12 9.744,-25.368 23.856,-25.368c14.112,0 23.856,10.248 23.856,25.368c0,15.12 -9.744,25.368 -23.856,25.368c-14.112,0 -23.856,-10.248 -23.856,-25.368Z" style="fill:white;fill-rule:nonzero;"/>
    <path d="M751.048,67.36l-21.504,0l0,122.808l72.912,0l0,-19.824l-51.408,0l0,-102.984Z" style="fill:white;fill-rule:nonzero;"/>
    <path d="M852.352,192.352c21.672,0 36.792,-10.92 40.32,-29.064l-18.984,0c-2.352,7.896 -9.744,12.264 -21,12.264c-13.608,0 -21.336,-7.392 -22.848,-22.008l62.496,-0.168l0,-6.216c0,-25.872 -15.792,-42.504 -40.656,-42.504c-24.36,0 -41.328,17.976 -41.328,44.016c0,25.704 17.304,43.68 42,43.68Zm-0.504,-70.896c12.264,0 20.16,7.56 20.16,18.984l-41.664,0c2.016,-12.432 9.408,-18.984 21.504,-18.984Z" style="fill:white;fill-rule:nonzero;"/>
    <path d="M932.656,192.352c12.936,0 24.192,-5.88 27.72,-14.448l1.512,12.264l17.976,0l0,-50.4c0,-23.016 -13.776,-35.112 -36.12,-35.112c-22.512,0 -37.296,11.76 -37.296,29.736l17.472,0c0,-8.736 6.72,-13.776 18.816,-13.776c10.416,0 17.136,4.536 17.136,15.792l0,1.848l-24.864,1.848c-19.656,1.512 -30.744,11.088 -30.744,26.376c0,15.624 10.752,25.872 28.392,25.872Zm6.72,-15.456c-9.24,0 -14.28,-3.696 -14.28,-11.256c0,-6.72 4.872,-10.92 17.64,-12.096l17.304,-1.344l0,4.368c0,12.768 -8.064,20.328 -20.664,20.328Z" style="fill:white;fill-rule:nonzero;"/>
    <path d="M1000.02,228.64l20.496,0l0,-49.56c5.208,8.4 15.96,13.272 28.392,13.272c24.696,0 38.808,-18.816 38.808,-44.688c0,-26.04 -15.456,-43.008 -38.808,-43.008c-12.6,0 -23.52,5.544 -28.56,15.12l-1.344,-12.6l-18.984,0l0,121.464Zm20.664,-79.968c0,-14.952 9.24,-25.368 23.352,-25.368c14.448,0 23.016,10.584 23.016,25.368c0,14.784 -8.568,25.2 -23.016,25.2c-14.112,0 -23.352,-10.248 -23.352,-25.2Z" style="fill:white;fill-rule:nonzero;"/>
    <path d="M412.192,190.168l9.912,-28.392l45.864,0l9.912,28.392l22.68,0l-44.352,-122.808l-22.008,0l-44.352,122.808l22.344,0Zm30.24,-86.184c1.176,-3.36 2.184,-7.056 2.688,-9.408c0.336,2.52 1.512,6.216 2.52,9.408l14.112,39.648l-33.264,0l13.944,-39.648Z" style="fill-rule:nonzero;"/>
    <path d="M538.864,190.168l0,-65.856l16.128,0l0,-17.136l-16.128,0l0,-25.872l-20.496,0l0,25.872l-15.96,0l0,17.136l15.96,0l0,65.856l20.496,0Z" style="fill-rule:nonzero;"/>
    <path d="M598.336,190.168l0,-65.856l16.128,0l0,-17.136l-16.128,0l0,-25.872l-20.496,0l0,25.872l-15.96,0l0,17.136l15.96,0l0,65.856l20.496,0Z" style="fill-rule:nonzero;"/>
    <path d="M621.52,148.504c0,25.872 18.648,43.68 44.352,43.68c25.704,0 44.352,-17.808 44.352,-43.68c0,-25.872 -18.648,-43.68 -44.352,-43.68c-25.704,0 -44.352,17.808 -44.352,43.68Zm20.496,0c0,-15.12 9.744,-25.368 23.856,-25.368c14.112,0 23.856,10.248 23.856,25.368c0,15.12 -9.744,25.368 -23.856,25.368c-14.112,0 -23.856,-10.248 -23.856,-25.368Z" style="fill-rule:nonzero;"/>
    <path d="M751.048,67.36l-21.504,0l0,122.808l72.912,0l0,-19.824l-51.408,0l0,-102.984Z" style="fill-rule:nonzero;"/>
    <path d="M852.352,192.352c21.672,0 36.792,-10.92 40.32,-29.064l-18.984,0c-2.352,7.896 -9.744,12.264 -21,12.264c-13.608,0 -21.336,-7.392 -22.848,-22.008l62.496,-0.168l0,-6.216c0,-25.872 -15.792,-42.504 -40.656,-42.504c-24.36,0 -41.328,17.976 -41.328,44.016c0,25.704 17.304,43.68 42,43.68Zm-0.504,-70.896c12.264,0 20.16,7.56 20.16,18.984l-41.664,0c2.016,-12.432 9.408,-18.984 21.504,-18.984Z" style="fill-rule:nonzero;"/>
    <path d="M932.656,192.352c12.936,0 24.192,-5.88 27.72,-14.448l1.512,12.264l17.976,0l0,-50.4c0,-23.016 -13.776,-35.112 -36.12,-35.112c-22.512,0 -37.296,11.76 -37.296,29.736l17.472,0c0,-8.736 6.72,-13.776 18.816,-13.776c10.416,0 17.136,4.536 17.136,15.792l0,1.848l-24.864,1.848c-19.656,1.512 -30.744,11.088 -30.744,26.376c0,15.624 10.752,25.872 28.392,25.872Zm6.72,-15.456c-9.24,0 -14.28,-3.696 -14.28,-11.256c0,-6.72 4.872,-10.92 17.64,-12.096l17.304,-1.344l0,4.368c0,12.768 -8.064,20.328 -20.664,20.328Z" style="fill-rule:nonzero;"/>
    <path d="M1000.02,228.64l20.496,0l0,-49.56c5.208,8.4 15.96,13.272 28.392,13.272c24.696,0 38.808,-18.816 38.808,-44.688c0,-26.04 -15.456,-43.008 -38.808,-43.008c-12.6,0 -23.52,5.544 -28.56,15.12l-1.344,-12.6l-18.984,0l0,121.464Zm20.664,-79.968c0,-14.952 9.24,-25.368 23.352,-25.368c14.448,0 23.016,10.584 23.016,25.368c0,14.784 -8.568,25.2 -23.016,25.2c-14.112,0 -23.352,-10.248 -23.352,-25.2Z" style="fill-rule:nonzero;"/>
    <g>
        <path d="M192.755,147.994c3.302,0.004 6.409,1.546 8.387,4.164c12.58,16.646 59.362,78.548 74.436,98.494c0.892,1.181 1.034,2.76 0.366,4.079c-0.668,1.318 -2.031,2.15 -3.521,2.148c-25.162,-0.029 -103.252,-0.119 -124.252,-0.143c-3.302,-0.004 -6.409,-1.546 -8.387,-4.164c-12.58,-16.646 -59.362,-78.549 -74.435,-98.494c-0.893,-1.181 -1.035,-2.76 -0.367,-4.079c0.668,-1.318 2.031,-2.15 3.521,-2.149c25.162,0.03 103.252,0.12 124.252,0.144Z" style="fill:rgb(93,18,210);"/>
        <path d="M220.292,93.629c3.302,0.004 6.409,1.546 8.387,4.164c12.58,16.646 59.362,78.548 74.435,98.494c0.893,1.181 1.035,2.76 0.367,4.079c-0.668,1.318 -2.031,2.15 -3.521,2.148c-25.162,-0.029 -103.252,-0.119 -124.252,-0.143c-3.302,-0.004 -6.409,-1.546 -8.387,-4.164c-12.58,-16.646 -59.362,-78.548 -74.435,-98.494c-0.893,-1.181 -1.035,-2.76 -0.367,-4.079c0.668,-1.318 2.031,-2.15 3.521,-2.148c25.162,0.029 103.252,0.119 124.252,0.143Z" style="fill:rgb(185,49,252);"/>
        <path d="M247.829,39.264c3.302,0.004 6.409,1.546 8.387,4.164c12.58,16.646 59.362,78.549 74.435,98.494c0.893,1.181 1.035,2.76 0.367,4.079c-0.668,1.318 -2.031,2.15 -3.521,2.149c-25.162,-0.03 -103.252,-0.12 -124.252,-0.144c-3.302,-0.004 -6.409,-1.546 -8.387,-4.164c-12.58,-16.646 -59.362,-78.548 -74.436,-98.494c-0.892,-1.181 -1.034,-2.76 -0.366,-4.079c0.668,-1.318 2.031,-2.15 3.521,-2.148c25.162,0.029 103.252,0.119 124.252,0.143Z" style="fill:rgb(255,106,194);"/>
    </g>
</svg>
